<?xml version="1.0" encoding="UTF-8"?>
<svg version="1.1" xmlns="http://www.w3.org/2000/svg" width="198" height="198">
<path d="M0 0 C65.34 0 130.68 0 198 0 C198 65.34 198 130.68 198 198 C132.66 198 67.32 198 0 198 C0 132.66 0 67.32 0 0 Z " fill="#933AA0" transform="translate(0,0)"/>
<path d="M0 0 C65.34 0 130.68 0 198 0 C198 65.34 198 130.68 198 198 C132.66 198 67.32 198 0 198 C0 132.66 0 67.32 0 0 Z M38.19140625 39.40234375 C22.01423289 58.57849399 17.4675793 79.38499111 19 104 C20.63943803 118.78432292 27.92603061 134.06867152 38 145 C39.04414062 145.73476562 40.08828125 146.46953125 41.1640625 147.2265625 C45.40067828 151.42628085 44.75619575 157.22881011 44.78515625 162.8046875 C44.77500706 164.28646992 44.76327044 165.76824225 44.75 167.25 C44.75144213 169.47184566 44.76127723 171.69322259 44.78131104 173.91497803 C44.79616763 175.92015235 44.78687086 177.92546222 44.77636719 179.93066406 C44.67157231 183.10747466 44.67157231 183.10747466 47 185 C52.46853551 185.56006297 55.494842 184.5955232 60.08984375 181.68359375 C61.76143555 180.66168945 61.76143555 180.66168945 63.46679688 179.61914062 C65.20640175 178.53050684 66.94132186 177.43506771 68.67260742 176.33325195 C79.66224983 169.39021346 79.66224983 169.39021346 84.0390625 170.0234375 C84.65354248 170.18158936 85.26802246 170.33974121 85.90112305 170.50268555 C90.60103144 171.6162965 95.63077661 171.18464396 100.4375 171.1875 C101.51837891 171.19974609 102.59925781 171.21199219 103.71289062 171.22460938 C110.09635443 171.23622271 115.8539383 170.7344666 122 169 C123.00546875 168.72800781 124.0109375 168.45601562 125.046875 168.17578125 C137.13879936 164.31405396 147.50008092 158.40312558 157 150 C157.61230469 149.48179687 158.22460938 148.96359375 158.85546875 148.4296875 C171.36525833 137.03633223 179.79422229 118.4641766 181.28759766 101.78857422 C181.39988406 98.52039694 181.40995019 95.26978429 181.375 92 C181.39240234 90.37191406 181.39240234 90.37191406 181.41015625 88.7109375 C181.37135398 77.87217054 179.03861834 68.11370352 174.3125 58.375 C173.96364746 57.64917725 173.61479492 56.92335449 173.25537109 56.17553711 C170.23197315 50.09412216 166.64489409 44.97115282 162 40 C161.25105469 39.16082031 160.50210938 38.32164063 159.73046875 37.45703125 C145.70327775 22.47807608 125.53660379 13.52735933 105.06640625 12.76171875 C79.08129278 12.23362354 56.52354581 20.28313559 38.19140625 39.40234375 Z " fill="#FEFDFE" transform="translate(0,0)"/>
<path d="M0 0 C1.57539551 0.01135986 1.57539551 0.01135986 3.18261719 0.02294922 C11.45833354 0.19786022 18.4796799 1.25665316 26.1875 4.4375 C27.69763672 5.03884766 27.69763672 5.03884766 29.23828125 5.65234375 C45.46606924 12.9138053 56.93440944 25.95249784 63.93359375 42.125 C70.00761601 58.17101519 70.14034794 75.52412192 63.359375 91.37304688 C58.59375 101.5 58.59375 101.5 54.1875 104.4375 C53.7853125 103.22126953 53.7853125 103.22126953 53.375 101.98046875 C49.21251974 90.21872354 44.04106095 81.53258418 33.2890625 74.875 C23.18911702 70.19391696 13.86371194 69.96859141 2.89257812 70.04638672 C0.19349622 70.06246428 -2.50408867 70.04648237 -5.203125 70.02734375 C-19.14152809 70.00939734 -31.03659066 71.49820459 -41.8203125 81.25390625 C-48.27621911 88.17094905 -51.93810039 96.23590191 -53.8125 105.4375 C-62.64159807 97.65625093 -67.07645877 82.77194335 -67.97216797 71.41259766 C-69.09391345 50.98379717 -62.22520735 34.67193328 -48.8125 19.4375 C-43.52653455 14.12465676 -37.49042118 10.52318322 -30.875 7.125 C-30.24319824 6.79910889 -29.61139648 6.47321777 -28.96044922 6.13745117 C-19.58601914 1.56911047 -10.38044516 -0.10564912 0 0 Z " fill="#FDFCFD" transform="translate(99.8125,26.5625)"/>
<path d="M0 0 C1.44964405 -0.01145772 2.89924802 -0.03181015 4.34863281 -0.06152344 C15.66820649 -0.29316899 26.49505635 0.37084496 35.13452148 8.59594727 C41.483375 15.80678612 44.50162323 24.06260143 44.32983398 33.70922852 C43.40778856 37.11925126 42.17706673 37.90991115 39.19311523 39.73266602 C37.35704105 40.62505961 35.50260345 41.48079826 33.63061523 42.29516602 C32.92420898 42.67157227 32.21780273 43.04797852 31.48999023 43.43579102 C18.32678205 50.16811887 2.38019932 50.89630992 -11.83422852 47.73266602 C-18.94041699 46.5063284 -22.65200928 48.15572273 -28.61938477 51.79516602 C-30.03915704 52.64244947 -31.46094033 53.48637506 -32.88500977 54.32641602 C-33.81748535 54.89199219 -33.81748535 54.89199219 -34.76879883 55.46899414 C-36.36938477 56.29516602 -36.36938477 56.29516602 -38.36938477 56.29516602 C-38.49417042 51.63624549 -38.58427218 46.9783242 -38.64404297 42.31811523 C-38.66899102 40.73721342 -38.70296282 39.15642459 -38.74658203 37.57592773 C-39.06164888 25.85544101 -38.17374753 17.57000234 -30.11938477 8.42016602 C-21.45662803 0.38294751 -11.19291533 0.06142377 0 0 Z " fill="#FDFCFD" transform="translate(97.369384765625,108.704833984375)"/>
<path d="M0 0 C5.82179127 3.6945983 8.75994401 8.49814258 11 15 C12.26873795 21.59948367 10.85338524 26.92018923 7.6171875 32.734375 C3.4702546 38.54408776 -1.99850814 41.72700148 -9 43 C-15.30864743 43.7141865 -20.55652021 42.13174558 -26 39 C-30.76915229 34.80069128 -34.51882868 30.2541655 -35.24609375 23.82421875 C-35.61823994 16.5730066 -34.18538775 9.83052957 -29.45703125 4.14453125 C-20.78428948 -3.89313561 -10.62290543 -4.7773944 0 0 Z " fill="#A439A0" transform="translate(112,45)"/>
<path d="M0 0 C2.69990662 1.79993774 4.5418865 3.083773 6 6 C6.53252058 9.99390436 6.35389756 11.51741242 3.9375 14.8125 C0.41144744 17.43828382 -1.61141575 18.07836758 -6 18 C-8.80189446 16.23358828 -10.51524911 14.96950178 -12 12 C-12.43023798 8.12785818 -12.31669086 6.47503629 -10.125 3.1875 C-6.82233621 -0.21230096 -4.68601439 -0.45941318 0 0 Z " fill="#FAF7FA" transform="translate(103,56)"/>
<path d="M0 0 C0.495 0.99 0.495 0.99 1 2 C0.17757812 2.40089844 -0.64484375 2.80179688 -1.4921875 3.21484375 C-9.41532753 7.24960674 -15.65426172 11.68400737 -22 18 C-22.49371094 18.48678223 -22.98742188 18.97356445 -23.49609375 19.47509766 C-26.69037323 22.6245696 -29.85508132 25.80127093 -33 29 C-33 22.91875136 -26.17668466 18.22625719 -22.11328125 14.0703125 C-15.72847781 8.05945633 -7.80256036 3.90128018 0 0 Z " fill="#CD309E" transform="translate(67,19)"/>
<path d="M0 0 C0 3 0 3 -2.1875 5.48046875 C-3.115625 6.37378906 -4.04375 7.26710938 -5 8.1875 C-5.928125 9.08855469 -6.85625 9.98960938 -7.8125 10.91796875 C-8.534375 11.60503906 -9.25625 12.29210937 -10 13 C-10 9.28115772 -9.1259934 8.63852271 -6.6875 5.9375 C-5.76517578 4.89916016 -5.76517578 4.89916016 -4.82421875 3.83984375 C-3 2 -3 2 0 0 Z " fill="#A82F9F" transform="translate(63,103)"/>
<path d="M0 0 C0.66 0.66 1.32 1.32 2 2 C-0.31 4.31 -2.62 6.62 -5 9 C-5.33 8.34 -5.66 7.68 -6 7 C-4.02 4.69 -2.04 2.38 0 0 Z " fill="#B635A1" transform="translate(86,46)"/>
</svg>
